<svg xmlns="http://www.w3.org/2000/svg" xmlns:xlink="http://www.w3.org/1999/xlink" aria-hidden="true" role="img" class="iconify iconify--logos" width="31.88" height="32" preserveAspectRatio="xMidYMid meet" viewBox="0 0 256 257"><defs><linearGradient id="IconifyId1813088fe1fbc01fb466" x1="-.828%" x2="57.636%" y1="7.652%" y2="78.411%"><stop offset="0%" stop-color="#FF00FF"></stop><stop offset="100%" stop-color="#FF8C00"></stop></linearGradient></defs><path fill="url(#IconifyId1813088fe1fbc01fb466)" d="M255.153 37.938L134.897 252.976c-2.883 5.084-7.769 8.172-13.367 8.172a13.5 13.5 0 0 1-13.438-12.362L10.332 37.938Q0 55.745 0 72.952c0 25.391 19.918 45.456 44.695 45.456c25.034 0 44.716-20.065 44.716-45.456L128 0l83.237 166.348c.059.023.118.047.176.07l38.826-76.532A45.364 45.364 0 0 0 128 45.256c-22.519 0-41.147 17.922-41.147 39.979c0 21.162 18.799 39.954 41.147 39.954c22.923 0 41.846-18.792 41.846-39.954 0-5.519-1.079-10.75-3.03-15.643L257.831 10.462A45.696 45.696 0 0 0 255.153 37.938Z"></path></svg>